<svg xmlns="http://www.w3.org/2000/svg" width="197" height="40.591" viewBox="0 0 197 40.591">
  <g id="Capa_1" data-name="Capa 1" transform="translate(0.001 -0.006)">
    <path id="Trazado_2" data-name="Trazado 2" d="M29.389,17.169c3.291,0,6.584.046,9.874-.029.957-.022,1.183.338,1.282,1.168a20.067,20.067,0,0,1-10.85,20.149A20.279,20.279,0,0,1,.34,24.008,20.086,20.086,0,0,1,17.453.444,20.268,20.268,0,0,1,35.675,7.09c.369.393.354.6-.021.961-1.291,1.249-2.575,2.509-3.8,3.818-.507.541-.8.608-1.325.013A13.271,13.271,0,1,0,32.767,25.4q.472-1.207-.792-1.208c-4.242,0-8.484-.023-12.725.021-.792.008-.965-.229-.943-.97.054-1.726.049-3.455,0-5.181-.019-.7.18-.915.9-.908,3.392.037,6.786.017,10.179.017Z" transform="translate(0 -0.211)" fill="#1c191d"/>
    <path id="Trazado_3" data-name="Trazado 3" d="M636.686,13.458v.986c0,8.366-.016,16.731.023,25.1,0,.87-.238,1.061-1.062,1.028-1.728-.068-3.461-.045-5.19-.007-.583.012-.728-.17-.727-.736q.023-19.509,0-39.016c0-.579.163-.743.734-.726,1.321.04,2.648.045,3.969,0a1.29,1.29,0,0,1,1.174.589Q646.1,13.933,656.62,27.179c.162.2.337.4.575.676a2.079,2.079,0,0,0,.148-1.136c0-8.535.018-17.069-.018-25.6,0-.858.217-1.076,1.058-1.041,1.693.071,3.394.06,5.088,0,.729-.024.886.2.883.9q-.036,14.478-.017,28.957c0,3.217-.033,6.436.022,9.652.014.831-.25,1.073-1.018.969a8.661,8.661,0,0,0-1.017-.008c-1.32-.018-2.824.345-3.909-.17-1.045-.5-1.659-1.9-2.458-2.907q-9.346-11.777-18.693-23.553c-.135-.17-.209-.428-.578-.457Z" transform="translate(-553.734 -0.057)" fill="#1b181c"/>
    <path id="Trazado_4" data-name="Trazado 4" d="M1297.087,20.206a20.234,20.234,0,1,1,19.839,20.3A20.314,20.314,0,0,1,1297.087,20.206Zm20.284,13.256a13.178,13.178,0,1,0,.093-26.357,13.179,13.179,0,1,0-.092,26.358Z" transform="translate(-1140.555 0)" fill="#1c191c"/>
    <path id="Trazado_5" data-name="Trazado 5" d="M377.219,20.289c0-6.4.016-12.805-.019-19.207,0-.811.226-.993,1.01-.991q12.369.043,24.739,0c.8,0,1.032.206,1,1-.064,1.589-.066,3.186,0,4.775.037.882-.152,1.192-1.131,1.183C396.946,7,391.075,7.04,385.2,7c-.8,0-1.008.2-.991.993q.081,3.707,0,7.418c-.016.775.163,1.013.984,1.006,5.4-.041,10.792-.006,16.188-.037.763,0,1.057.138,1.021.979-.074,1.725-.058,3.455,0,5.182.022.717-.193.9-.9.9-5.429-.029-10.86,0-16.289-.035-.8-.006-1.011.2-1,1q.076,4.115,0,8.232c-.013.772.16,1.02.987,1.014,5.9-.04,11.81-.008,17.715-.036.755,0,1.068.128,1.033.978-.072,1.758-.037,3.523-.012,5.283.007.509-.117.7-.673.7q-12.675-.025-25.351.006c-.86,0-.694-.5-.694-.982q0-9.654,0-19.309Z" transform="translate(-331.679 -0.074)" fill="#1d1a1e"/>
    <path id="Trazado_6" data-name="Trazado 6" d="M978.952,16.954c.013,2.031,0,4.062.057,6.092.022.717-.264.817-.883.815-4.919-.021-9.838.016-14.757-.035-.911-.01-1.114.233-1.105,1.116.047,4.842,0,9.685.041,14.526.006.807-.139,1.125-1.032,1.085-1.727-.077-3.46-.058-5.189-.006-.734.023-.9-.224-.894-.92.028-4.91-.006-9.82.035-14.73.007-.835-.2-1.076-1.055-1.069-4.919.042-9.838,0-14.757.037-.763,0-.99-.2-.965-.964q.085-2.589,0-5.18c-.025-.768.21-.971.969-.965,4.885.033,9.77-.012,14.655.041.963.011,1.16-.285,1.153-1.184-.042-4.842,0-9.685-.036-14.526,0-.763.144-1.067.991-1.034,1.965.076,3.933.04,5.9.049,0,5.241.028,10.484-.007,15.725-.006.88.211,1.152,1.126,1.145,5.251-.043,10.5-.021,15.754-.019Z" transform="translate(-825.193 -0.039)" fill="#19abdc"/>
    <path id="Trazado_7" data-name="Trazado 7" d="M1151.109,17.341c-5.251,0-10.5-.024-15.754.019-.915.007-1.132-.265-1.126-1.145.036-5.241.012-10.484.007-15.725.434.253.2.671.205,1,.019,4.8.04,9.6-.01,14.392-.01.973.163,1.308,1.24,1.292,4.806-.07,9.612-.036,14.419-.019.334,0,.743-.212,1.016.187Z" transform="translate(-997.35 -0.426)" fill="#4b9ab6"/>
  </g>
</svg>
