<svg xmlns="http://www.w3.org/2000/svg" width="127" height="130.83" viewBox="0 0 127 130.83">
  <g id="Grupo_5" data-name="Grupo 5" transform="translate(-2433 401)">
    <path id="Trazado_1" data-name="Trazado 1" d="M4.057,1.667H7.683L3.625,10.04H0Z" transform="translate(2433 -402.667)" fill="#faf9fe"/>
    <path id="Trazado_1-2" data-name="Trazado 1" d="M4.057,1.667H7.683L3.625,10.04H0Z" transform="translate(2450.045 -402.667)" fill="#faf9fe"/>
    <path id="Trazado_1-3" data-name="Trazado 1" d="M4.057,1.667H7.683L3.625,10.04H0Z" transform="translate(2467.091 -402.667)" fill="#faf9fe"/>
    <path id="Trazado_1-4" data-name="Trazado 1" d="M4.057,1.667H7.683L3.625,10.04H0Z" transform="translate(2484.136 -402.667)" fill="#faf9fe"/>
    <path id="Trazado_1-5" data-name="Trazado 1" d="M4.057,1.667H7.683L3.625,10.04H0Z" transform="translate(2501.181 -402.667)" fill="#faf9fe"/>
    <path id="Trazado_1-6" data-name="Trazado 1" d="M4.057,1.667H7.683L3.625,10.04H0Z" transform="translate(2518.227 -402.667)" fill="#faf9fe"/>
    <path id="Trazado_1-7" data-name="Trazado 1" d="M4.057,1.667H7.683L3.625,10.04H0Z" transform="translate(2535.272 -402.667)" fill="#faf9fe"/>
    <path id="Trazado_1-8" data-name="Trazado 1" d="M4.057,1.667H7.683L3.625,10.04H0Z" transform="translate(2552.317 -402.667)" fill="#faf9fe"/>
    <path id="Trazado_1-9" data-name="Trazado 1" d="M4.057,1.667H7.683L3.625,10.04H0Z" transform="translate(2433 -385.173)" fill="#faf9fe"/>
    <path id="Trazado_1-10" data-name="Trazado 1" d="M4.057,1.667H7.683L3.625,10.04H0Z" transform="translate(2450.045 -385.173)" fill="#faf9fe"/>
    <path id="Trazado_1-11" data-name="Trazado 1" d="M4.057,1.667H7.683L3.625,10.04H0Z" transform="translate(2467.091 -385.173)" fill="#faf9fe"/>
    <path id="Trazado_1-12" data-name="Trazado 1" d="M4.057,1.667H7.683L3.625,10.04H0Z" transform="translate(2484.136 -385.173)" fill="#faf9fe"/>
    <path id="Trazado_1-13" data-name="Trazado 1" d="M4.057,1.667H7.683L3.625,10.04H0Z" transform="translate(2501.181 -385.173)" fill="#faf9fe"/>
    <path id="Trazado_1-14" data-name="Trazado 1" d="M4.057,1.667H7.683L3.625,10.04H0Z" transform="translate(2518.227 -385.173)" fill="#faf9fe"/>
    <path id="Trazado_1-15" data-name="Trazado 1" d="M4.057,1.667H7.683L3.625,10.04H0Z" transform="translate(2535.272 -385.173)" fill="#faf9fe"/>
    <path id="Trazado_1-16" data-name="Trazado 1" d="M4.057,1.667H7.683L3.625,10.04H0Z" transform="translate(2552.317 -385.173)" fill="#faf9fe"/>
    <path id="Trazado_1-17" data-name="Trazado 1" d="M4.057,1.667H7.683L3.625,10.04H0Z" transform="translate(2433 -367.679)" fill="#faf9fe"/>
    <path id="Trazado_1-18" data-name="Trazado 1" d="M4.057,1.667H7.683L3.625,10.04H0Z" transform="translate(2450.045 -367.679)" fill="#faf9fe"/>
    <path id="Trazado_1-19" data-name="Trazado 1" d="M4.057,1.667H7.683L3.625,10.04H0Z" transform="translate(2467.091 -367.679)" fill="#faf9fe"/>
    <path id="Trazado_1-20" data-name="Trazado 1" d="M4.057,1.667H7.683L3.625,10.04H0Z" transform="translate(2484.136 -367.679)" fill="#faf9fe"/>
    <path id="Trazado_1-21" data-name="Trazado 1" d="M4.057,1.667H7.683L3.625,10.04H0Z" transform="translate(2501.181 -367.679)" fill="#faf9fe"/>
    <path id="Trazado_1-22" data-name="Trazado 1" d="M4.057,1.667H7.683L3.625,10.04H0Z" transform="translate(2518.227 -367.679)" fill="#faf9fe"/>
    <path id="Trazado_1-23" data-name="Trazado 1" d="M4.057,1.667H7.683L3.625,10.04H0Z" transform="translate(2535.272 -367.679)" fill="#faf9fe"/>
    <path id="Trazado_1-24" data-name="Trazado 1" d="M4.057,1.667H7.683L3.625,10.04H0Z" transform="translate(2552.317 -367.679)" fill="#faf9fe"/>
    <path id="Trazado_1-25" data-name="Trazado 1" d="M4.057,1.667H7.683L3.625,10.04H0Z" transform="translate(2433 -350.185)" fill="#faf9fe"/>
    <path id="Trazado_1-26" data-name="Trazado 1" d="M4.057,1.667H7.683L3.625,10.04H0Z" transform="translate(2450.045 -350.185)" fill="#faf9fe"/>
    <path id="Trazado_1-27" data-name="Trazado 1" d="M4.057,1.667H7.683L3.625,10.04H0Z" transform="translate(2467.091 -350.185)" fill="#faf9fe"/>
    <path id="Trazado_1-28" data-name="Trazado 1" d="M4.057,1.667H7.683L3.625,10.04H0Z" transform="translate(2484.136 -350.185)" fill="#faf9fe"/>
    <path id="Trazado_1-29" data-name="Trazado 1" d="M4.057,1.667H7.683L3.625,10.04H0Z" transform="translate(2501.181 -350.185)" fill="#faf9fe"/>
    <path id="Trazado_1-30" data-name="Trazado 1" d="M4.057,1.667H7.683L3.625,10.04H0Z" transform="translate(2518.227 -350.185)" fill="#faf9fe"/>
    <path id="Trazado_1-31" data-name="Trazado 1" d="M4.057,1.667H7.683L3.625,10.04H0Z" transform="translate(2535.272 -350.185)" fill="#faf9fe"/>
    <path id="Trazado_1-32" data-name="Trazado 1" d="M4.057,1.667H7.683L3.625,10.04H0Z" transform="translate(2552.317 -350.185)" fill="#faf9fe"/>
    <path id="Trazado_1-33" data-name="Trazado 1" d="M4.057,1.667H7.683L3.625,10.04H0Z" transform="translate(2433 -332.691)" fill="#faf9fe"/>
    <path id="Trazado_1-34" data-name="Trazado 1" d="M4.057,1.667H7.683L3.625,10.04H0Z" transform="translate(2450.045 -332.691)" fill="#faf9fe"/>
    <path id="Trazado_1-35" data-name="Trazado 1" d="M4.057,1.667H7.683L3.625,10.04H0Z" transform="translate(2467.091 -332.691)" fill="#faf9fe"/>
    <path id="Trazado_1-36" data-name="Trazado 1" d="M4.057,1.667H7.683L3.625,10.04H0Z" transform="translate(2484.136 -332.691)" fill="#faf9fe"/>
    <path id="Trazado_1-37" data-name="Trazado 1" d="M4.057,1.667H7.683L3.625,10.04H0Z" transform="translate(2501.181 -332.691)" fill="#faf9fe"/>
    <path id="Trazado_1-38" data-name="Trazado 1" d="M4.057,1.667H7.683L3.625,10.04H0Z" transform="translate(2518.227 -332.691)" fill="#faf9fe"/>
    <path id="Trazado_1-39" data-name="Trazado 1" d="M4.057,1.667H7.683L3.625,10.04H0Z" transform="translate(2535.272 -332.691)" fill="#faf9fe"/>
    <path id="Trazado_1-40" data-name="Trazado 1" d="M4.057,1.667H7.683L3.625,10.04H0Z" transform="translate(2552.317 -332.691)" fill="#faf9fe"/>
    <path id="Trazado_1-41" data-name="Trazado 1" d="M4.057,1.667H7.683L3.625,10.04H0Z" transform="translate(2433 -315.197)" fill="#faf9fe"/>
    <path id="Trazado_1-42" data-name="Trazado 1" d="M4.057,1.667H7.683L3.625,10.04H0Z" transform="translate(2450.045 -315.197)" fill="#faf9fe"/>
    <path id="Trazado_1-43" data-name="Trazado 1" d="M4.057,1.667H7.683L3.625,10.04H0Z" transform="translate(2467.091 -315.197)" fill="#faf9fe"/>
    <path id="Trazado_1-44" data-name="Trazado 1" d="M4.057,1.667H7.683L3.625,10.04H0Z" transform="translate(2484.136 -315.197)" fill="#faf9fe"/>
    <path id="Trazado_1-45" data-name="Trazado 1" d="M4.057,1.667H7.683L3.625,10.04H0Z" transform="translate(2501.181 -315.197)" fill="#faf9fe"/>
    <path id="Trazado_1-46" data-name="Trazado 1" d="M4.057,1.667H7.683L3.625,10.04H0Z" transform="translate(2518.227 -315.197)" fill="#faf9fe"/>
    <path id="Trazado_1-47" data-name="Trazado 1" d="M4.057,1.667H7.683L3.625,10.04H0Z" transform="translate(2535.272 -315.197)" fill="#faf9fe"/>
    <path id="Trazado_1-48" data-name="Trazado 1" d="M4.057,1.667H7.683L3.625,10.04H0Z" transform="translate(2552.317 -315.197)" fill="#faf9fe"/>
    <path id="Trazado_1-49" data-name="Trazado 1" d="M4.057,1.667H7.683L3.625,10.04H0Z" transform="translate(2433 -297.703)" fill="#faf9fe"/>
    <path id="Trazado_1-50" data-name="Trazado 1" d="M4.057,1.667H7.683L3.625,10.04H0Z" transform="translate(2450.045 -297.703)" fill="#faf9fe"/>
    <path id="Trazado_1-51" data-name="Trazado 1" d="M4.057,1.667H7.683L3.625,10.04H0Z" transform="translate(2467.091 -297.703)" fill="#faf9fe"/>
    <path id="Trazado_1-52" data-name="Trazado 1" d="M4.057,1.667H7.683L3.625,10.04H0Z" transform="translate(2484.136 -297.703)" fill="#faf9fe"/>
    <path id="Trazado_1-53" data-name="Trazado 1" d="M4.057,1.667H7.683L3.625,10.04H0Z" transform="translate(2501.181 -297.703)" fill="#faf9fe"/>
    <path id="Trazado_1-54" data-name="Trazado 1" d="M4.057,1.667H7.683L3.625,10.04H0Z" transform="translate(2518.227 -297.703)" fill="#faf9fe"/>
    <path id="Trazado_1-55" data-name="Trazado 1" d="M4.057,1.667H7.683L3.625,10.04H0Z" transform="translate(2535.272 -297.703)" fill="#faf9fe"/>
    <path id="Trazado_1-56" data-name="Trazado 1" d="M4.057,1.667H7.683L3.625,10.04H0Z" transform="translate(2552.317 -297.703)" fill="#faf9fe"/>
    <path id="Trazado_1-57" data-name="Trazado 1" d="M4.057,1.667H7.683L3.625,10.04H0Z" transform="translate(2433 -280.209)" fill="#faf9fe"/>
    <path id="Trazado_1-58" data-name="Trazado 1" d="M4.057,1.667H7.683L3.625,10.04H0Z" transform="translate(2450.045 -280.209)" fill="#faf9fe"/>
    <path id="Trazado_1-59" data-name="Trazado 1" d="M4.057,1.667H7.683L3.625,10.04H0Z" transform="translate(2467.091 -280.209)" fill="#faf9fe"/>
    <path id="Trazado_1-60" data-name="Trazado 1" d="M4.057,1.667H7.683L3.625,10.04H0Z" transform="translate(2484.136 -280.209)" fill="#faf9fe"/>
    <path id="Trazado_1-61" data-name="Trazado 1" d="M4.057,1.667H7.683L3.625,10.04H0Z" transform="translate(2501.181 -280.209)" fill="#faf9fe"/>
    <path id="Trazado_1-62" data-name="Trazado 1" d="M4.057,1.667H7.683L3.625,10.04H0Z" transform="translate(2518.227 -280.209)" fill="#faf9fe"/>
    <path id="Trazado_1-63" data-name="Trazado 1" d="M4.057,1.667H7.683L3.625,10.04H0Z" transform="translate(2535.272 -280.209)" fill="#faf9fe"/>
    <path id="Trazado_1-64" data-name="Trazado 1" d="M4.057,1.667H7.683L3.625,10.04H0Z" transform="translate(2552.317 -280.209)" fill="#faf9fe"/>
  </g>
</svg>
