<svg xmlns="http://www.w3.org/2000/svg" width="90" height="90" viewBox="0 0 90 90">
  <g id="Grupo_99" data-name="Grupo 99" transform="translate(-3550 -2260)">
    <g id="Grupo_97" data-name="Grupo 97">
      <rect id="Rectángulo_21" data-name="Rectángulo 21" width="90" height="90" transform="translate(3550 2260)" fill="none"/>
      <g id="Grupo_93" data-name="Grupo 93" transform="translate(585.546 301.927)">
        <path id="Trazado_103" data-name="Trazado 103" d="M45.13,32.85A8.177,8.177,0,1,0,36.8,24.675,8.364,8.364,0,0,0,45.13,32.85Zm0-13.265a5.092,5.092,0,1,1-5.244,5.09A5.271,5.271,0,0,1,45.13,19.585ZM34.8,46.578H55.464a1.457,1.457,0,0,0,1.542-1.542V40.563a6.912,6.912,0,0,0-6.941-6.941H40.348a6.912,6.912,0,0,0-6.941,6.941v4.473A1.343,1.343,0,0,0,34.8,46.578Zm1.542-6.016a3.819,3.819,0,0,1,3.856-3.856h9.718a3.819,3.819,0,0,1,3.856,3.856v2.931H36.338Z" transform="translate(2963.946 1971.615)" fill="#17acdf"/>
        <path id="Trazado_104" data-name="Trazado 104" d="M22.042,38.8h3.393A26.75,26.75,0,0,0,50.578,63.635v3.239a1.542,1.542,0,0,0,3.085,0V63.635A26.507,26.507,0,0,0,78.806,38.8H82.2a1.542,1.542,0,1,0,0-3.085H78.806C78.189,22.3,67.237,11.653,53.663,10.882V7.642a1.542,1.542,0,0,0-3.085,0v3.239A26.507,26.507,0,0,0,25.436,35.716H22.042A1.457,1.457,0,0,0,20.5,37.258,1.659,1.659,0,0,0,22.042,38.8ZM50.578,13.967v3.085a1.542,1.542,0,0,0,3.085,0V13.967A23.432,23.432,0,0,1,75.721,35.716H72.482a1.542,1.542,0,1,0,0,3.085h3.239A23.683,23.683,0,0,1,53.663,60.55V57.465a1.542,1.542,0,0,0-3.085,0V60.55A23.432,23.432,0,0,1,28.521,38.8H31.76a1.542,1.542,0,1,0,0-3.085H28.521A23.556,23.556,0,0,1,50.578,13.967Z" transform="translate(2956.955 1965.973)" fill="#17acdf"/>
      </g>
    </g>
  </g>
</svg>
