<svg xmlns="http://www.w3.org/2000/svg" width="90" height="90" viewBox="0 0 90 90">
  <g id="Grupo_96" data-name="Grupo 96" transform="translate(-3414 -2260)">
    <rect id="Rect치ngulo_22" data-name="Rect치ngulo 22" width="90" height="90" transform="translate(3414 2260)" fill="none"/>
    <g id="Grupo_95" data-name="Grupo 95" transform="translate(-95.936 -98.726)">
      <path id="Sustracci칩n_1" data-name="Sustracci칩n 1" d="M5.694,39.91h0L0,19.955,5.694,0l5.694,19.955L5.695,39.909Zm0-21.347a1.508,1.508,0,1,0,1.511,1.508A1.511,1.511,0,0,0,5.694,18.563Z" transform="translate(3559.71 2384.022) rotate(30)" fill="#17acdf"/>
      <path id="Trazado_104" data-name="Trazado 104" d="M25.436,38.8A26.75,26.75,0,0,0,50.578,63.635a28.082,28.082,0,0,0,3.085,0A26.507,26.507,0,0,0,78.806,38.8a14.1,14.1,0,0,0,0-3.085C78.189,22.3,67.237,11.653,53.663,10.882a21.434,21.434,0,0,0-3.085,0A26.507,26.507,0,0,0,25.436,35.716ZM50.578,13.967a19.872,19.872,0,0,1,3.085,0A23.432,23.432,0,0,1,75.721,35.716a20.889,20.889,0,0,1,0,3.085A23.683,23.683,0,0,1,53.663,60.55c-.652.019-2.31.061-3.085,0A23.432,23.432,0,0,1,28.521,38.8c-.035-1.2-.053-2.033,0-3.085A23.556,23.556,0,0,1,50.578,13.967Z" transform="translate(3502.5 2366.9)" fill="#17acdf"/>
    </g>
  </g>
</svg>
