<svg xmlns="http://www.w3.org/2000/svg" width="90" height="90" viewBox="0 0 90 90">
  <g id="Grupo_98" data-name="Grupo 98" transform="translate(-3676 -2260)">
    <rect id="Rectángulo_20" data-name="Rectángulo 20" width="90" height="90" transform="translate(3676 2260)" fill="none"/>
    <g id="Grupo_94" data-name="Grupo 94" transform="translate(175.445 13.073)">
      <path id="_82a0f4028816eed998b59731d91860c3" data-name="82a0f4028816eed998b59731d91860c3" d="M29.756,27.638a6.409,6.409,0,0,1,6.409,6.409l0,3.2c.44,7.847-5.6,11.761-16.813,11.761C8.177,49.006,2,45.144,2,37.357v-3.31a6.409,6.409,0,0,1,6.409-6.409Zm17.094,0a6.41,6.41,0,0,1,6.409,6.409l0,2.25c.387,7.039-4.954,10.569-14.716,10.569a33.955,33.955,0,0,1-3.734-.194,10.445,10.445,0,0,0,2.757-4.091l.978.011h0c7.624,0,10.672-2.014,10.447-6.179V34.047a2.137,2.137,0,0,0-2.136-2.136H38.033a8.546,8.546,0,0,0-2.626-4.275ZM29.756,31.911H8.409a2.137,2.137,0,0,0-2.136,2.136v3.31c0,4.9,3.965,7.376,13.076,7.376,9.075,0,12.817-2.423,12.544-7.369V34.047A2.136,2.136,0,0,0,29.756,31.911ZM19.092,2A10.684,10.684,0,1,1,8.408,12.684,10.684,10.684,0,0,1,19.092,2ZM40.457,6.273a8.546,8.546,0,1,1-8.546,8.546A8.546,8.546,0,0,1,40.457,6.273Zm-21.365,0A6.411,6.411,0,1,0,25.5,12.684,6.411,6.411,0,0,0,19.092,6.273Zm21.365,4.273a4.273,4.273,0,1,0,4.273,4.273A4.273,4.273,0,0,0,40.457,10.546Z" transform="translate(3517.555 2265.927)" fill="#1aabdd"/>
    </g>
  </g>
</svg>
